<svg version="1.1" id="Layer_1" xmlns="http://www.w3.org/2000/svg" xmlns:xlink="http://www.w3.org/1999/xlink" x="0px" y="0px"
	 width="100%" viewBox="0 0 1024 928" enable-background="new 0 0 1024 928" xml:space="preserve">
<path fill="#000000" opacity="1.000000" stroke="none" 
	d="
M654.349548,606.567261 
	C650.916382,610.760864 651.098633,615.406067 651.268799,620.040161 
	C651.462402,625.311523 648.830017,630.051086 646.860474,634.392151 
	C644.635742,639.295532 644.804565,644.871399 641.366089,649.405579 
	C637.198181,654.901733 632.795227,659.743774 626.932068,663.617981 
	C621.553650,667.171692 615.170959,667.394775 609.680481,671.813599 
	C600.338196,679.332275 589.137024,685.054077 575.964417,683.282227 
	C572.690125,682.841858 569.258362,682.852295 565.984253,683.291321 
	C560.451233,684.033386 556.500671,681.168274 552.490601,678.217712 
	C547.724487,674.710876 545.994690,669.916199 546.991455,664.204224 
	C547.845703,659.308655 545.742432,656.093628 541.446167,654.422852 
	C537.732910,652.978699 534.182739,652.600891 530.219849,655.197510 
	C526.687988,657.511658 522.969177,661.372437 519.904236,662.041748 
	C510.660522,664.060608 503.898865,672.332214 492.940948,670.544373 
	C482.384613,668.822083 471.334778,670.103088 460.501801,670.112366 
	C457.784729,670.114685 455.186523,670.005371 453.085327,667.898682 
	C452.531036,667.342957 451.591156,666.767700 450.883850,666.830017 
	C442.020905,667.612610 433.787201,663.459473 425.157318,663.348450 
	C399.828857,663.022400 374.493500,663.232605 349.160858,663.219727 
	C346.033905,663.218140 342.773804,663.731079 340.337585,660.907043 
	C339.962646,660.472412 339.052643,660.135803 338.511017,660.264160 
	C332.072357,661.790405 326.050781,658.413391 321.206573,656.081909 
	C315.218262,653.199768 308.834930,652.783142 302.952454,651.185608 
	C293.517700,648.623291 285.767181,643.163574 276.944550,639.769165 
	C272.620941,638.105591 269.966583,633.346069 264.969025,632.171387 
	C258.710632,630.700256 255.030197,624.871948 249.170547,622.356079 
	C246.135025,621.052673 243.192123,618.086487 242.504868,614.085205 
	C242.421753,613.601257 242.323547,612.967957 241.992599,612.701172 
	C236.494827,608.269165 234.429047,601.638184 231.305481,595.744324 
	C228.883698,591.174622 227.283524,586.085571 225.261032,581.417847 
	C222.673645,575.446350 224.457779,568.408020 219.836700,563.221436 
	C218.587891,561.819824 219.010681,559.716797 219.007935,557.888062 
	C218.995407,549.554993 218.916595,541.221130 219.004135,532.889099 
	C219.057266,527.831665 217.860550,522.452881 222.136765,518.268311 
	C222.347000,518.062622 222.488937,517.625122 222.436554,517.336548 
	C220.996185,509.401794 224.963898,502.261810 226.206421,494.760193 
	C227.120483,489.241608 229.205933,483.541534 232.332352,478.180450 
	C236.386536,471.228546 243.192200,466.515381 246.261612,458.844055 
	C247.512039,455.718842 251.100525,453.515625 253.665573,450.933014 
	C257.727753,446.843079 257.016663,443.723846 251.731079,441.842041 
	C246.093948,439.835114 243.024414,434.884369 239.507355,430.536224 
	C238.899353,429.784546 238.958008,428.267792 239.116486,427.162903 
	C239.668121,423.316925 250.191986,413.775208 254.104156,414.008331 
	C260.076172,414.364197 264.827881,411.445312 269.613129,408.771820 
	C271.381714,407.783783 273.665253,408.391235 275.050507,406.586365 
	C275.346863,404.609619 274.056488,403.382721 272.657990,402.609253 
	C261.047516,396.187897 253.468521,385.345520 244.279861,376.334015 
	C241.599274,373.705078 239.018478,369.643860 238.837570,364.989227 
	C238.516449,356.726837 245.095901,353.046234 249.856735,348.285217 
	C251.149506,346.992432 253.220901,346.077240 254.399597,344.567322 
	C259.599030,337.906769 266.764252,336.904480 274.220856,338.138306 
	C280.097595,339.110748 282.929077,344.759705 285.825073,349.080414 
	C288.511627,353.088654 291.420166,356.863770 294.572418,360.409271 
	C296.872192,362.995911 299.732239,364.932343 300.660095,368.633179 
	C301.098022,370.379913 302.770538,371.751709 304.897949,371.395264 
	C306.753357,371.084442 308.499573,370.325592 308.675720,368.042023 
	C308.830353,366.037506 310.062225,364.756927 311.391022,363.444183 
	C317.151245,357.753448 322.324005,351.477112 328.739899,346.435059 
	C331.135406,344.552612 334.390381,344.411469 336.569763,342.168976 
	C336.889648,341.839813 337.856842,341.946533 338.452698,342.111328 
	C341.524597,342.960724 349.078888,352.303223 349.290222,355.590881 
	C349.771393,363.076935 355.668701,366.327179 362.337494,362.972412 
	C368.043701,360.101898 374.370392,356.838104 381.526062,357.790588 
	C384.074646,358.129791 386.797119,358.151550 389.889191,357.076080 
	C383.364929,349.319763 376.366089,342.953339 367.301941,339.383698 
	C363.905579,338.046143 362.137787,336.152069 361.732666,332.594391 
	C361.317688,328.949677 363.612915,326.805389 366.153259,325.408020 
	C369.251007,323.703949 372.040741,325.171692 374.662048,327.507263 
	C383.005402,334.941132 392.710266,340.817902 399.886108,349.595093 
	C400.960358,350.909058 402.512512,350.819305 404.009277,350.962341 
	C409.573853,351.494141 412.289551,354.067596 412.204224,359.426208 
	C412.142700,363.292511 413.447266,364.966370 417.401276,364.698395 
	C420.553436,364.484772 423.829712,365.149811 426.877380,364.547302 
	C432.954712,363.345795 437.364624,368.136230 442.979828,368.459595 
	C444.587555,368.552185 444.961273,370.472107 445.268433,371.992035 
	C445.562134,373.445129 445.733246,375.008331 446.415710,376.277039 
	C447.380432,378.070404 450.087585,379.333038 448.510193,381.823303 
	C446.842346,384.456268 445.056244,387.345367 441.741150,388.097931 
	C436.583466,389.268768 434.546631,393.456085 432.133942,397.339233 
	C431.353119,398.595886 430.808258,400.003326 429.991028,401.232483 
	C425.161285,408.496674 424.088409,417.054901 426.526184,424.612549 
	C429.727325,434.536926 435.516174,443.067413 446.522675,447.492889 
	C451.845154,449.632935 456.948425,449.556580 462.073914,450.745850 
	C468.926392,452.335815 475.432800,455.574036 478.805969,462.507507 
	C481.289917,467.613190 482.981598,473.159821 485.893860,477.986511 
	C488.992462,483.122009 494.400665,486.124603 499.056549,489.833099 
	C504.638092,494.278839 510.811096,493.494232 517.038513,493.415771 
	C518.421387,493.398315 519.517700,492.653656 520.509277,491.662140 
	C530.535217,481.636871 537.210144,487.610260 541.311707,497.352905 
	C543.718750,503.070374 545.026123,508.959259 545.747559,515.282532 
	C546.314026,520.247314 548.505981,525.197937 548.472839,530.536621 
	C548.457336,533.047913 550.825134,532.932129 552.656067,532.936951 
	C558.989014,532.953735 565.364197,533.368469 571.643005,532.778015 
	C577.459900,532.231018 582.317078,534.406250 587.254700,536.594543 
	C591.102051,538.299500 593.084473,545.245789 590.737793,548.803162 
	C589.032715,551.387939 586.044800,552.001282 583.711548,550.209351 
	C576.239807,544.471191 567.761597,544.084717 558.842834,543.965271 
	C553.305115,543.891174 548.985474,546.470154 544.500732,548.453735 
	C539.506470,550.662598 539.940613,563.046570 544.341187,566.407471 
	C551.545959,571.910095 559.046448,576.788879 567.429382,580.365295 
	C569.702942,581.335205 572.017395,583.154602 571.389221,586.586060 
	C570.797791,589.817078 568.369629,590.256409 565.876892,590.674255 
	C564.571777,590.893066 563.224304,590.918213 561.895325,590.925781 
	C555.454163,590.962341 551.650635,594.991150 551.816833,601.526245 
	C551.926880,605.856262 552.474548,610.276367 551.828857,614.503784 
	C550.400757,623.853577 547.140991,632.649292 541.758850,641.390808 
	C546.142212,642.280945 550.700256,642.385132 554.805786,644.503845 
	C556.623230,645.441711 558.085754,642.574463 559.406555,641.252502 
	C562.698059,637.958069 566.333618,638.123779 569.890625,640.032471 
	C572.424438,641.392090 573.179565,649.450378 570.602051,651.567810 
	C566.469727,654.962646 564.880310,659.485840 563.168091,664.181030 
	C569.029724,672.640991 571.604553,672.855713 581.211243,669.589050 
	C586.867737,667.665649 592.155029,665.310120 597.516846,662.792969 
	C603.099915,660.171997 607.288025,655.497803 613.050720,653.278687 
	C621.167236,650.153076 625.961487,643.263977 631.492493,637.106201 
	C634.228210,634.060486 634.654358,630.091614 635.611206,626.865234 
	C637.465881,620.611572 641.337158,614.597656 639.962219,607.447510 
	C639.343506,604.230286 639.598389,600.867310 642.195129,598.080383 
	C643.468567,596.713562 642.987000,594.582275 643.030701,592.759338 
	C643.128906,588.660034 642.476074,584.509949 645.899353,581.054749 
	C647.429688,579.510071 646.453857,576.877380 646.681702,574.745605 
	C647.144287,570.416626 645.546692,565.948059 648.624817,561.737427 
	C649.801819,560.127319 647.442200,558.210449 645.166260,558.054993 
	C642.509216,557.873352 639.835510,557.948608 637.173950,557.815186 
	C633.742432,557.643372 630.419800,556.485962 630.278748,552.694519 
	C630.137695,548.902893 633.483643,547.138733 636.737122,546.227295 
	C638.606689,545.703491 640.707703,546.028015 642.702148,545.924561 
	C650.506592,545.519897 658.319885,546.054443 666.112061,546.138245 
	C675.619446,546.240479 682.614319,541.259338 689.859192,536.676392 
	C695.533813,533.086670 701.264038,529.483459 706.000000,524.481445 
	C708.432007,521.912903 713.164062,523.534119 713.814270,527.093079 
	C714.503174,530.863281 714.668579,534.356812 711.652771,538.176086 
	C707.624695,543.277222 701.749084,544.378418 696.898254,547.536072 
	C691.570007,551.004395 685.567078,552.911194 679.447083,554.811768 
	C673.814819,556.560913 668.979980,560.686829 662.780029,561.529175 
	C660.950989,561.777710 661.105103,563.914429 661.269165,565.337097 
	C662.515564,576.142639 656.321960,586.126953 657.931519,597.050232 
	C658.402710,600.248230 653.079834,602.121094 654.349548,606.567261 
M363.735016,374.769348 
	C360.250519,374.932312 356.767456,375.176758 353.281158,375.240021 
	C347.351898,375.347595 339.817993,368.874786 338.762177,362.890503 
	C338.491486,361.356232 339.204437,359.190552 336.930389,358.771332 
	C335.046783,358.424072 333.635834,359.590210 332.141327,360.854523 
	C325.545471,366.434631 320.860077,373.533325 315.815918,380.387268 
	C314.280243,382.473907 313.172455,384.350037 312.986847,387.022858 
	C312.672546,391.548096 307.246735,394.404663 303.917358,391.414154 
	C298.651062,386.683807 293.502106,381.543396 289.506439,375.747223 
	C284.297180,368.190674 278.596100,361.076721 272.893280,353.930664 
	C271.412628,352.075256 269.297424,351.513489 267.546753,352.530121 
	C262.919128,355.217407 257.860168,357.352478 254.574554,361.996643 
	C252.984955,364.243530 252.804016,366.170380 254.553604,368.261017 
	C258.074951,372.468781 261.769836,376.504639 265.560120,380.484009 
	C270.604095,385.779572 275.967285,390.586121 282.086212,394.543579 
	C287.774139,398.222229 285.067169,405.667297 289.166595,410.148193 
	C289.892365,410.941528 288.804199,413.271759 287.348083,413.882141 
	C281.336639,416.402008 276.173706,420.700928 269.524902,421.944061 
	C265.541565,422.688782 262.284424,425.775543 257.863678,425.723022 
	C256.403839,425.705658 255.916199,427.729309 256.242340,429.701813 
	C261.081696,430.482330 262.501068,436.153687 267.225647,437.550293 
	C271.349945,438.769440 273.400452,442.549561 275.564453,445.738678 
	C277.131775,448.048431 273.544983,449.562531 272.981079,451.762543 
	C272.733765,452.727356 272.437805,453.697540 272.016541,454.596191 
	C271.189514,456.360321 269.678284,458.013458 267.866943,457.740997 
	C262.895905,456.993073 260.985596,460.906586 258.064301,463.399414 
	C254.705109,466.265930 253.864960,470.835938 250.949753,473.870819 
	C246.443069,478.562561 244.199677,484.652924 240.758224,489.962646 
	C236.290329,496.856049 237.507156,505.943787 233.801254,513.673157 
	C231.575348,518.315735 231.875046,524.343872 230.676117,529.757141 
	C227.842758,542.550110 231.043091,555.562744 233.596451,568.329224 
	C233.627792,568.485901 233.710007,568.652649 233.816864,568.771057 
	C240.044464,575.675964 239.445786,585.814575 245.595703,593.048218 
	C247.900330,595.758972 250.694107,598.713196 252.270264,602.053467 
	C256.784790,611.621094 265.333069,616.642761 273.584747,622.133301 
	C280.315918,626.612000 287.346008,630.527771 294.456573,634.364258 
	C300.791504,637.782227 307.578461,640.613281 314.389648,641.516418 
	C320.650818,642.346619 326.215576,644.846008 331.830292,646.737732 
	C340.102448,649.524902 348.713043,650.611328 356.948059,651.355652 
	C372.974152,652.804077 389.251099,652.197815 405.382812,651.494751 
	C415.583344,651.050232 425.664490,652.393494 435.814209,652.095459 
	C437.076569,652.058289 438.636536,652.372681 439.580353,653.124512 
	C442.302032,655.292542 445.457275,655.369080 448.593140,655.396606 
	C464.250732,655.533752 479.918060,655.284912 495.563385,655.770508 
	C502.929230,655.999084 509.306580,653.157776 515.471008,650.342102 
	C522.700867,647.039734 528.327576,641.758667 531.194336,633.413879 
	C533.628540,626.328247 539.321411,619.913879 539.853760,612.551758 
	C540.532898,603.159180 540.767700,593.613098 540.784546,584.124390 
	C540.787903,582.243958 540.900391,580.226868 539.455078,578.964172 
	C535.525330,575.530762 534.812256,570.275696 531.906372,566.242126 
	C529.399475,562.762390 530.771667,552.914673 533.576111,549.369812 
	C536.393494,545.808533 539.142944,541.569824 538.725830,537.287354 
	C537.731323,527.077942 533.785889,517.472595 530.715210,507.717407 
	C529.782532,504.754425 527.839783,504.260895 524.858521,505.721130 
	C517.572571,509.289795 510.161346,508.345764 502.755249,505.725891 
	C495.918030,503.307373 490.320343,498.979736 484.553345,494.780426 
	C477.825073,489.881226 473.434509,483.267181 471.071136,475.671692 
	C468.683167,467.997223 463.151459,461.950562 455.315735,461.409668 
	C449.842529,461.031921 444.622284,460.513153 439.330536,458.426697 
	C429.795349,454.667053 424.103180,447.158051 418.327698,439.510498 
	C414.298767,434.175659 414.791321,427.945618 414.868988,421.799164 
	C414.896362,419.633575 414.597137,417.425690 414.917419,415.308289 
	C416.673065,403.701569 417.917480,391.891388 427.024902,382.990845 
	C428.195068,381.847229 430.007568,380.639557 428.880280,378.319305 
	C427.848938,376.196625 425.962708,375.539551 423.961151,375.465881 
	C417.803833,375.239197 411.636017,375.057037 405.478088,375.171234 
	C401.034882,375.253571 398.319977,373.709351 398.362671,368.996429 
	C398.388855,366.106720 396.932251,365.693787 394.402527,365.209381 
	C390.530792,364.468048 388.498962,368.072632 385.252930,368.270233 
	C379.032532,368.648926 373.899200,373.554108 367.290100,372.465302 
	C366.492279,372.333893 365.445190,373.715576 363.735016,374.769348 
z"/>
<path fill="#000000" opacity="1.000000" stroke="none" 
	d="
M433.433350,317.457886 
	C441.432648,305.826172 450.812256,295.871277 460.641754,286.272827 
	C468.057190,279.031769 476.009644,272.690125 484.899902,267.227081 
	C490.652435,263.692139 496.104950,259.584320 502.334320,256.942993 
	C507.384796,254.801529 512.660645,252.626389 518.027649,251.921967 
	C527.333496,250.700577 534.730103,255.547287 539.066528,264.301727 
	C539.213989,264.599365 539.298462,264.973938 539.530823,265.177185 
	C547.297913,271.971619 550.753540,281.775208 556.590698,289.927490 
	C560.226501,295.005341 563.612061,300.590363 565.314209,306.854187 
	C567.033630,313.181458 569.096191,314.577454 575.831604,314.755280 
	C581.354309,314.901062 586.731018,314.184113 592.262207,317.163605 
	C595.781311,319.059296 601.062439,317.738403 605.553772,317.755493 
	C608.412903,317.766388 611.233154,317.677490 613.551331,319.805054 
	C614.017273,320.232697 614.774414,320.717010 615.314209,320.634155 
	C622.977478,319.457458 629.666016,324.043732 636.974426,324.290985 
	C641.222839,324.434723 644.070862,327.363892 648.139771,327.995056 
	C655.118408,329.077545 661.014832,327.031860 667.524780,325.426331 
	C673.183899,324.030579 678.145996,320.761505 684.385132,320.342560 
	C688.558960,320.062347 693.343079,317.535126 697.846313,316.309906 
	C704.714294,314.441223 710.889038,309.739502 718.539612,310.886536 
	C719.357178,311.009064 720.473083,310.621826 720.989624,311.040161 
	C725.402710,314.614349 729.971497,318.068176 733.885376,322.142334 
	C735.035583,323.339630 735.916443,325.432953 737.006714,327.062439 
	C741.372620,333.588074 743.907593,340.742218 744.200439,348.603790 
	C744.312439,351.611389 744.186951,354.524384 746.420715,357.025665 
	C747.699219,358.457397 747.349365,360.502686 747.351257,362.328400 
	C747.357300,368.159393 747.345764,373.990387 747.338135,379.821381 
	C747.333008,383.790771 746.871033,387.785156 750.027466,391.107910 
	C751.289551,392.436462 751.102600,394.542023 751.096252,396.391479 
	C751.076782,402.055786 751.102173,407.720367 751.058105,413.384399 
	C751.033569,416.541992 751.169434,419.725403 748.296143,422.063049 
	C747.013000,423.106964 747.384399,424.836426 747.370789,426.315186 
	C747.327820,430.979584 747.319153,435.644379 747.307190,440.309021 
	C747.299744,443.234863 746.144043,445.110809 742.948059,445.194885 
	C739.959412,445.273529 736.358643,444.948669 736.352417,441.464844 
	C736.334961,431.685028 733.849182,421.848114 738.064880,412.081970 
	C739.970337,407.667694 740.674927,402.151581 737.284607,397.440704 
	C735.941711,395.574768 735.883850,393.396576 735.879883,391.217438 
	C735.869080,385.219849 735.859741,379.222260 735.849976,373.224670 
	C735.844360,369.744324 736.256958,366.177673 733.394165,363.379761 
	C732.962708,362.958038 732.581970,362.099365 732.700806,361.557556 
	C734.306274,354.238220 730.832031,347.706573 729.030945,341.084595 
	C727.572632,335.722626 724.674622,329.941589 719.274109,327.503357 
	C714.101379,325.167908 708.318542,324.547150 702.956055,328.582916 
	C700.003601,330.804932 695.831848,330.552338 692.318359,331.659576 
	C687.396912,333.210541 682.260437,334.850800 677.426331,336.542877 
	C672.779663,338.169342 667.809692,338.924500 663.287537,341.292267 
	C657.968018,344.077454 651.615540,343.465149 646.316589,341.602966 
	C641.098511,339.769196 635.607300,337.947083 631.051514,334.121063 
	C628.203552,331.729309 623.908997,332.749908 620.354431,333.025421 
	C611.701538,333.696106 604.097473,331.462708 597.064392,326.502502 
	C594.096436,324.409363 590.756836,324.530914 587.726013,326.687622 
	C585.616272,328.188934 583.562256,328.667023 581.290771,327.107880 
	C579.514038,325.888336 577.447144,326.086029 575.475159,326.162476 
	C571.070190,326.333252 566.957581,326.573181 565.088379,321.056763 
	C564.255493,318.598846 561.120911,318.297638 558.693054,317.686218 
	C555.720459,316.937653 553.720520,315.675873 553.566467,312.011108 
	C553.429565,308.753998 551.058472,305.677002 549.320862,303.438965 
	C545.676147,298.744751 542.895630,293.512634 539.564514,288.679779 
	C535.722839,283.106293 531.440918,277.706787 528.350037,271.656097 
	C525.893311,266.846802 520.891296,266.330017 516.985291,264.154846 
	C514.901733,262.994598 511.951385,265.669769 510.086304,266.903412 
	C506.134399,269.517334 501.885803,271.870636 497.883850,274.194366 
	C492.973602,277.045502 488.920837,281.037354 483.701691,283.527893 
	C477.756592,286.364929 473.929565,292.283142 469.016266,296.685760 
	C463.373962,301.741577 457.748474,306.957001 452.982239,312.808899 
	C448.478180,318.338867 444.988007,324.602478 439.403290,329.373230 
	C436.135010,332.165192 433.445892,333.637482 429.942596,330.489899 
	C426.858856,327.719238 427.054443,324.048798 430.310547,320.441071 
	C431.194946,319.461151 432.202057,318.592010 433.433350,317.457886 
z"/>
<path fill="#000000" opacity="1.000000" stroke="none" 
	d="
M565.360718,476.658142 
	C561.195984,472.332153 555.448975,470.677399 551.764038,466.287476 
	C551.385986,465.837097 550.260010,465.342926 550.046021,465.526733 
	C546.600342,468.487091 541.679810,467.218567 538.213257,469.610535 
	C536.427368,470.842834 534.698975,471.749756 532.753479,471.439178 
	C523.226746,469.918457 514.141541,467.293304 508.485962,458.576782 
	C506.223724,455.090179 506.950043,451.056976 508.677155,447.655457 
	C509.479492,446.075256 511.160583,443.676788 513.723145,444.296295 
	C516.052673,444.859589 517.649048,446.640442 518.599854,448.919525 
	C521.781555,456.546356 533.015259,459.957001 540.143066,455.478119 
	C545.951294,451.828369 557.135986,453.446167 562.141785,458.085358 
	C568.801697,464.257416 576.558533,468.996948 584.849426,472.597778 
	C590.253540,474.944824 593.044373,472.530975 593.144043,466.446289 
	C593.163025,465.285309 593.115906,464.072388 593.427490,462.976776 
	C594.305237,459.890228 596.484741,457.193542 599.505554,457.376953 
	C602.456299,457.556152 605.152161,460.170563 604.998047,463.520203 
	C604.536865,473.545837 610.248291,480.070709 616.988464,486.187988 
	C621.337585,490.135223 622.541931,494.399841 620.164185,496.845093 
	C617.832520,499.242981 610.019775,498.821472 607.480347,495.347931 
	C601.006958,486.493378 592.623840,483.911621 581.975037,484.820923 
	C575.600647,485.365234 570.304016,481.176300 565.360718,476.658142 
z"/>
<path fill="#000000" opacity="1.000000" stroke="none" 
	d="
M595.890320,497.368225 
	C600.910095,496.238953 604.932129,497.111725 607.456970,501.464294 
	C608.813904,503.803467 610.843445,503.894806 613.030640,503.761078 
	C618.697937,503.414642 624.084961,503.740936 629.311035,506.678741 
	C633.707397,509.150055 634.891296,511.266693 634.367188,518.842285 
	C634.063904,523.226196 631.587463,524.495789 627.763794,524.464844 
	C625.521729,524.446655 623.943115,525.919373 622.741333,527.386108 
	C619.876465,530.882690 616.240784,531.568726 612.055237,531.338501 
	C608.407959,531.137878 604.716248,530.939941 601.094055,531.276917 
	C595.845398,531.765259 592.194824,529.462769 589.125916,525.598022 
	C586.634583,522.460571 586.136292,519.273315 589.032288,516.195068 
	C591.065125,514.034302 591.615356,511.968292 590.563110,509.012665 
	C588.736450,503.882019 590.523193,499.916443 595.890320,497.368225 
z"/>
<path fill="#000000" opacity="1.000000" stroke="none" 
	d="
M773.999390,468.368866 
	C765.681641,468.359436 757.863831,468.346954 750.045959,468.340729 
	C746.453308,468.337860 743.222412,467.706848 742.848572,463.277344 
	C742.577698,460.067047 746.215271,456.899933 750.277771,456.801483 
	C755.099060,456.684570 759.953796,456.405457 764.742371,456.809723 
	C774.404236,457.625366 783.643250,455.784027 792.894775,453.405823 
	C795.766296,452.667694 798.851929,452.947632 801.826416,453.492004 
	C805.533997,454.170532 807.265747,456.492126 807.165527,460.160706 
	C807.058716,464.070343 804.413452,464.651367 801.119873,465.245087 
	C792.297668,466.835510 783.632507,469.487396 773.999390,468.368866 
z"/>
<path fill="#000000" opacity="1.000000" stroke="none" 
	d="
M750.485779,487.322205 
	C752.980530,488.784912 755.045410,489.899475 757.756775,489.891907 
	C763.480774,489.875885 769.171509,489.190033 774.714783,492.369965 
	C777.251038,493.824860 781.230408,492.709564 784.549500,492.875854 
	C786.359497,492.966522 788.271118,492.986481 789.935791,493.591736 
	C792.948547,494.687103 794.176880,497.147644 793.879944,500.329651 
	C793.577026,503.575989 791.528503,505.229767 788.518921,505.007111 
	C779.563293,504.344757 770.347351,507.270477 761.620728,502.411560 
	C759.125793,501.022339 755.422913,501.727081 752.268860,501.619232 
	C749.285645,501.517212 746.993713,500.510620 744.946838,498.147827 
	C743.112061,496.029846 741.890747,493.729950 743.158020,491.429779 
	C744.507141,488.981018 746.235046,486.003174 750.485779,487.322205 
z"/>
<path fill="#000000" opacity="1.000000" stroke="none" 
	d="
M392.851196,308.172272 
	C391.911865,306.974792 391.244293,306.024048 390.520081,305.118652 
	C387.232788,301.008667 387.584747,298.621735 391.925171,295.751282 
	C395.019348,293.705017 400.077423,294.946136 401.980133,298.192047 
	C405.964508,304.989166 410.144531,311.631744 414.782349,318.038025 
	C417.899811,322.344299 419.884186,327.532593 421.968689,332.497070 
	C422.906738,334.731201 422.207977,337.277893 419.726532,338.461121 
	C416.966827,339.777039 414.079224,339.723145 412.053131,337.108795 
	C409.138245,333.347656 405.441132,330.205231 403.799408,325.428131 
	C401.583313,318.979706 396.168823,314.423767 392.851196,308.172272 
z"/>
<path fill="#000000" opacity="1.000000" stroke="none" 
	d="
M649.017090,488.247986 
	C640.833496,488.132385 636.765015,484.038788 636.648560,476.252533 
	C636.631165,475.087616 636.628906,473.922180 636.640320,472.757202 
	C636.708496,465.791870 638.902954,463.663879 646.029297,463.641998 
	C655.431030,463.613159 661.244690,468.585663 661.238037,476.650330 
	C661.231079,485.124359 658.169006,488.142792 649.017090,488.247986 
z"/>
<path fill="#000000" opacity="1.000000" stroke="none" 
	d="
M460.909668,427.571777 
	C460.662689,422.080261 460.384949,416.722198 466.153442,414.481812 
	C471.899261,412.250244 476.266449,414.945618 479.852509,419.571686 
	C481.545135,421.755188 484.154388,423.328125 485.100616,426.010651 
	C486.531738,430.067902 483.401367,436.156372 479.327698,437.846497 
	C471.645844,441.033569 462.893829,436.354370 460.909668,427.571777 
z"/>
<path fill="#000000" opacity="1.000000" stroke="none" 
	d="
M570.809692,501.686462 
	C573.185913,499.873230 575.688354,499.063965 577.888245,497.530182 
	C581.086060,495.300629 584.433044,496.907654 586.633179,499.680573 
	C589.156616,502.860992 589.011230,506.730194 586.598572,509.783783 
	C584.593567,512.321350 581.857849,514.479553 579.050415,516.135376 
	C575.456482,518.255066 572.016052,517.231934 569.335144,514.008118 
	C566.528870,510.633484 566.986755,506.237701 570.809692,501.686462 
z"/>
<path fill="#000000" opacity="1.000000" stroke="none" 
	d="
M707.869385,498.940063 
	C711.120178,499.337067 713.930298,499.653992 716.718872,500.104065 
	C719.198792,500.504303 721.063354,501.826172 721.779541,504.325836 
	C722.474915,506.752960 721.025024,508.431641 719.508789,510.038940 
	C716.666138,513.052307 712.997620,513.336670 709.329529,512.641968 
	C706.092224,512.028809 702.916321,510.932587 699.825745,509.754517 
	C697.404907,508.831696 697.172729,506.479370 697.361938,504.272369 
	C697.578308,501.747589 698.890869,499.756805 701.468872,499.235260 
	C703.394897,498.845551 705.431824,499.003723 707.869385,498.940063 
z"/>
<path fill="#000000" opacity="1.000000" stroke="none" 
	d="
M532.616516,347.832275 
	C534.866760,345.809235 536.642395,342.701935 539.804321,345.730042 
	C541.532654,347.385193 540.618835,353.144440 538.459717,354.889771 
	C536.347473,356.597198 535.143616,354.691284 533.902954,353.506226 
	C532.387024,352.058289 531.537476,350.308228 532.616516,347.832275 
z"/>
</svg>